<?xml version="1.0" encoding="utf-8"?>
<!-- Generator: Adobe Illustrator 15.0.1, SVG Export Plug-In . SVG Version: 6.00 Build 0)  -->
<!DOCTYPE svg PUBLIC "-//W3C//DTD SVG 1.1//EN" "http://www.w3.org/Graphics/SVG/1.1/DTD/svg11.dtd">
<svg version="1.1" id="Capa_1" xmlns="http://www.w3.org/2000/svg" xmlns:xlink="http://www.w3.org/1999/xlink" x="0px" y="0px"
	 width="60px" height="60px" viewBox="0 0 60 60" enable-background="new 0 0 60 60" xml:space="preserve">
<path fill="#454545" d="M59.102,55.122L33.98,30.001L59.102,4.88c1.045-1.045,1-2.783-0.1-3.883
	c-1.099-1.099-2.835-1.143-3.881-0.097L30,26.021L4.879,0.9C3.833-0.146,2.097-0.102,0.997,0.997
	c-1.099,1.1-1.143,2.837-0.098,3.883L26.02,30.001L0.899,55.122c-1.043,1.043-1,2.781,0.098,3.881c1.1,1.099,2.838,1.143,3.881,0.1
	L30,33.98l25.121,25.122c1.044,1.043,2.782,0.999,3.881-0.1C60.103,57.903,60.146,56.165,59.102,55.122z"/>
</svg>
