<?xml version="1.0" encoding="utf-8"?>
<!-- Generator: Adobe Illustrator 15.0.1, SVG Export Plug-In . SVG Version: 6.00 Build 0)  -->
<!DOCTYPE svg PUBLIC "-//W3C//DTD SVG 1.1//EN" "http://www.w3.org/Graphics/SVG/1.1/DTD/svg11.dtd">
<svg version="1.1" id="Capa_1" xmlns="http://www.w3.org/2000/svg" xmlns:xlink="http://www.w3.org/1999/xlink" x="0px" y="0px"
	 width="60px" height="60px" viewBox="366 276 60 60" enable-background="new 366 276 60 60" xml:space="preserve">
<g>
	<path fill="#444444" d="M422.114,279.887c-5.165-5.177-13.564-5.177-18.729,0l-34.338,34.325c-0.269,0.269-0.435,0.614-0.486,0.984
		l-2.544,18.845c-0.077,0.536,0.115,1.073,0.486,1.444c0.319,0.319,0.767,0.512,1.214,0.512c0.077,0,0.153,0,0.23-0.014
		l11.353-1.534c0.946-0.127,1.611-0.997,1.483-1.942c-0.128-0.946-0.997-1.611-1.943-1.483l-9.102,1.228l1.777-13.143l13.833,13.833
		c0.319,0.319,0.767,0.511,1.214,0.511c0.448,0,0.895-0.179,1.214-0.511l34.339-34.326c2.505-2.506,3.886-5.83,3.886-9.371
		C426,285.704,424.619,282.38,422.114,279.887z M404.05,284.105l5.766,5.766l-31.334,31.334l-5.766-5.766L404.05,284.105z
		 M386.574,329.285l-5.638-5.638l31.334-31.334l5.638,5.638L386.574,329.285z M420.312,295.483l-13.794-13.794
		c1.751-1.445,3.938-2.237,6.238-2.237c2.621,0,5.075,1.023,6.929,2.864c1.854,1.841,2.864,4.308,2.864,6.929
		C422.549,291.559,421.756,293.732,420.312,295.483z"/>
</g>
</svg>
