<?xml version="1.0" encoding="utf-8"?>
<!-- Generator: Adobe Illustrator 15.0.1, SVG Export Plug-In . SVG Version: 6.00 Build 0)  -->
<!DOCTYPE svg PUBLIC "-//W3C//DTD SVG 1.1//EN" "http://www.w3.org/Graphics/SVG/1.1/DTD/svg11.dtd">
<svg version="1.1" id="Capa_1" xmlns="http://www.w3.org/2000/svg" xmlns:xlink="http://www.w3.org/1999/xlink" x="0px" y="0px"
	 width="60px" height="60px" viewBox="366 276 60 60" enable-background="new 366 276 60 60" xml:space="preserve">
<g>
	<g>
		<path fill="#444444" d="M379.742,287.898c8.858-8.013,22.115-8.136,31.096-0.821l-7.119,0.27
			c-0.919,0.037-1.629,0.797-1.592,1.715c0.037,0.895,0.771,1.593,1.653,1.593c0.025,0,0.037,0,0.062,0l10.93-0.404
			c0.894-0.037,1.593-0.76,1.593-1.654v-0.123c0-0.024,0-0.037,0-0.062V288.4l0,0l-0.405-10.807
			c-0.036-0.918-0.809-1.629-1.715-1.593c-0.919,0.037-1.63,0.796-1.593,1.716l0.257,6.775c-4.447-3.639-9.924-5.746-15.78-6.04
			c-7.253-0.368-14.225,2.12-19.604,6.996c-7.4,6.702-10.537,16.896-8.184,26.6c0.184,0.759,0.857,1.261,1.604,1.261
			c0.135,0,0.257-0.012,0.392-0.049c0.882-0.221,1.434-1.115,1.213-1.997C370.492,302.735,373.236,293.779,379.742,287.898z"/>
		<path fill="#444444" d="M422.661,299.954c-0.221-0.882-1.115-1.433-1.997-1.213c-0.882,0.221-1.434,1.115-1.213,1.997
			c2.071,8.528-0.687,17.483-7.191,23.365c-4.571,4.128-10.305,6.162-16.014,6.162c-5.452,0-10.892-1.85-15.278-5.501l7.204-0.649
			c0.907-0.085,1.581-0.882,1.495-1.801c-0.086-0.92-0.882-1.581-1.801-1.495l-10.892,0.98c-0.907,0.085-1.581,0.882-1.495,1.801
			l0.98,10.892c0.074,0.858,0.796,1.508,1.642,1.508c0.049,0,0.098,0,0.147-0.013c0.907-0.086,1.58-0.882,1.495-1.801l-0.588-6.628
			c4.447,3.602,9.899,5.696,15.719,5.991c0.466,0.024,0.932,0.036,1.385,0.036c6.75,0,13.17-2.475,18.218-7.033
			C421.877,319.852,425.014,309.67,422.661,299.954z"/>
	</g>
</g>
</svg>
