<?xml version="1.0" encoding="utf-8"?>
<!-- Generator: Adobe Illustrator 15.0.1, SVG Export Plug-In . SVG Version: 6.00 Build 0)  -->
<!DOCTYPE svg PUBLIC "-//W3C//DTD SVG 1.1//EN" "http://www.w3.org/Graphics/SVG/1.1/DTD/svg11.dtd">
<svg version="1.1" id="Capa_1" xmlns="http://www.w3.org/2000/svg" xmlns:xlink="http://www.w3.org/1999/xlink" x="0px" y="0px"
	 width="60px" height="60px" viewBox="0 0 60 60" enable-background="new 0 0 60 60" xml:space="preserve">
<g>
	<path fill="#444444" d="M59.475,56.94l-14.58-14.581c3.91-4.497,6.278-10.364,6.278-16.776C51.173,11.468,39.691,0,25.59,0
		C11.475,0,0.007,11.48,0.007,25.583S11.488,51.166,25.59,51.166c6.412,0,12.279-2.368,16.776-6.279l14.581,14.581
		C57.293,59.814,57.759,60,58.211,60s0.918-0.173,1.264-0.532C60.166,58.776,60.166,57.632,59.475,56.94z M3.585,25.583
		c0-12.133,9.871-21.991,21.991-21.991c12.133,0,21.99,9.872,21.99,21.991c0,12.12-9.856,22.005-21.99,22.005
		C13.457,47.588,3.585,37.716,3.585,25.583z"/>
</g>
</svg>
