<?xml version="1.0" encoding="utf-8"?>
<!-- Generator: Adobe Illustrator 15.0.1, SVG Export Plug-In . SVG Version: 6.00 Build 0)  -->
<!DOCTYPE svg PUBLIC "-//W3C//DTD SVG 1.1//EN" "http://www.w3.org/Graphics/SVG/1.1/DTD/svg11.dtd">
<svg version="1.1" id="Capa_1" xmlns="http://www.w3.org/2000/svg" xmlns:xlink="http://www.w3.org/1999/xlink" x="0px" y="0px"
	 width="60px" height="60px" viewBox="366 276 60 60" enable-background="new 366 276 60 60" xml:space="preserve">
<g>
	<g>
		<path fill="#444444" d="M421.017,284.634h-12.483v-2.035c0-3.639-2.96-6.599-6.6-6.599h-11.868c-3.638,0-6.599,2.96-6.599,6.599
			v2.035h-12.484c-0.925,0-1.665,0.74-1.665,1.666c0,0.925,0.74,1.665,1.665,1.665h3.01v39.128c0,4.911,3.997,8.906,8.906,8.906
			h26.2c4.911,0,8.908-3.995,8.908-8.906v-39.128h3.009c0.926,0,1.665-0.74,1.665-1.665
			C422.682,285.375,421.942,284.634,421.017,284.634z M386.798,282.599c0-1.801,1.468-3.269,3.268-3.269h11.868
			c1.8,0,3.27,1.468,3.27,3.269v2.035h-18.405V282.599z M414.676,327.094c0,3.071-2.503,5.576-5.576,5.576h-26.2
			c-3.071,0-5.576-2.505-5.576-5.576v-39.128h37.364v39.128H414.676z"/>
		<path fill="#444444" d="M396,326.699c0.924,0,1.666-0.74,1.666-1.666v-29.433c0-0.925-0.742-1.665-1.666-1.665
			c-0.925,0-1.665,0.74-1.665,1.665v29.421C394.335,325.947,395.075,326.699,396,326.699z"/>
		<path fill="#444444" d="M385.132,324.861c0.926,0,1.666-0.739,1.666-1.666v-25.769c0-0.925-0.74-1.665-1.666-1.665
			c-0.925,0-1.665,0.74-1.665,1.665v25.769C383.467,324.122,384.22,324.861,385.132,324.861z"/>
		<path fill="#444444" d="M406.867,324.861c0.926,0,1.666-0.739,1.666-1.666v-25.769c0-0.925-0.74-1.665-1.666-1.665
			c-0.924,0-1.664,0.74-1.664,1.665v25.769C405.203,324.122,405.943,324.861,406.867,324.861z"/>
	</g>
</g>
</svg>
