<?xml version="1.0" encoding="utf-8"?>
<!-- Generator: Adobe Illustrator 15.0.1, SVG Export Plug-In . SVG Version: 6.00 Build 0)  -->
<!DOCTYPE svg PUBLIC "-//W3C//DTD SVG 1.1//EN" "http://www.w3.org/Graphics/SVG/1.1/DTD/svg11.dtd">
<svg version="1.1" id="Capa_1" xmlns="http://www.w3.org/2000/svg" xmlns:xlink="http://www.w3.org/1999/xlink" x="0px" y="0px"
	 width="60px" height="60px" viewBox="18.49 18.49 60 60" enable-background="new 18.49 18.49 60 60" xml:space="preserve">
<g>
	<g>
		<path fill="#FFFFFF" d="M66.504,70.99h-36.03c-0.629,0-1.238-0.271-1.668-0.745c-0.431-0.474-0.654-1.116-0.613-1.765
			c0.257-4.021,1.857-16.901,11.686-21.895c-2.087-2.251-3.252-5.211-3.252-8.383c0-6.734,5.322-12.212,11.863-12.212
			s11.863,5.479,11.863,12.212c0,3.125-1.194,6.135-3.267,8.388c9.839,5.007,11.443,17.875,11.701,21.889
			c0.04,0.65-0.184,1.293-0.613,1.766C67.743,70.719,67.135,70.99,66.504,70.99z M30.724,68.396h35.533
			c-0.301-4.133-2.033-16.571-11.919-20.191c-0.438-0.161-0.756-0.557-0.824-1.032c-0.067-0.475,0.124-0.949,0.499-1.234
			c2.393-1.815,3.821-4.708,3.821-7.737c0-5.304-4.192-9.619-9.344-9.619c-5.153,0-9.344,4.315-9.344,9.619
			c0,3.071,1.39,5.891,3.814,7.734c0.375,0.285,0.566,0.76,0.497,1.234c-0.068,0.475-0.386,0.872-0.826,1.031
			C32.754,51.796,31.024,64.247,30.724,68.396z"/>
		<path fill="#FFFFFF" d="M76.552,63.781h-7.067c-0.589,0-1.1-0.421-1.229-1.012c-1.09-4.996-3.62-11.748-9.484-15.545
			c-0.293-0.189-0.497-0.494-0.564-0.842c-0.068-0.349,0.006-0.711,0.205-1.002c1.453-2.126,2.222-4.608,2.222-7.178
			c0-0.9-0.096-1.803-0.283-2.682c-0.125-0.583,0.152-1.178,0.672-1.442c1.15-0.583,2.374-0.88,3.639-0.88
			c4.554,0,8.259,3.813,8.259,8.5c0,1.983-0.688,3.897-1.9,5.408c6.262,3.573,7.297,11.906,7.465,14.552
			c0.035,0.548-0.154,1.093-0.518,1.492C77.597,63.554,77.083,63.781,76.552,63.781z M70.48,61.188h5.44
			c-0.286-3.029-1.594-10.294-7.54-12.471c-0.438-0.16-0.756-0.557-0.824-1.032c-0.067-0.475,0.124-0.949,0.499-1.233
			c1.469-1.115,2.346-2.892,2.346-4.754c0-3.257-2.574-5.906-5.739-5.906c-0.565,0-1.121,0.086-1.658,0.257
			c0.1,0.713,0.15,1.434,0.15,2.153c0,2.668-0.684,5.256-1.988,7.559C66.64,49.832,69.243,56.153,70.48,61.188z"/>
		<path fill="#FFFFFF" d="M27.49,63.78h-7.063c-0.532,0-1.046-0.228-1.411-0.625c-0.369-0.402-0.559-0.949-0.523-1.502
			c0.169-2.646,1.204-10.983,7.455-14.548c-1.217-1.504-1.889-3.393-1.889-5.406c0-4.687,3.705-8.5,8.258-8.5
			c1.264,0,2.488,0.296,3.638,0.879c0.52,0.264,0.797,0.858,0.673,1.44c-0.189,0.89-0.285,1.793-0.285,2.684
			c0,2.601,0.761,5.083,2.201,7.175c0.2,0.291,0.275,0.653,0.207,1.002c-0.067,0.35-0.271,0.655-0.564,0.845
			c-5.854,3.79-8.38,10.543-9.468,15.542C28.589,63.36,28.079,63.78,27.49,63.78z M21.057,61.187h5.437
			c1.235-5.037,3.833-11.358,9.296-15.424c-1.29-2.28-1.967-4.868-1.967-7.56c0-0.715,0.051-1.436,0.152-2.153
			c-0.539-0.171-1.094-0.257-1.659-0.257c-3.165,0-5.739,2.649-5.739,5.906c0,1.888,0.854,3.62,2.343,4.75
			c0.375,0.286,0.567,0.76,0.498,1.235s-0.387,0.872-0.826,1.031C22.653,50.876,21.344,58.152,21.057,61.187z"/>
	</g>
</g>
</svg>
